<?xml version="1.0" encoding="UTF-8" standalone="no"?>
<!DOCTYPE svg PUBLIC "-//W3C//DTD SVG 1.1//EN"
 "http://www.w3.org/Graphics/SVG/1.1/DTD/svg11.dtd">
<!-- Generated by graphviz version 2.43.0 (0)
 -->
<!-- Title: %3 Pages: 1 -->
<svg width="876pt" height="231pt"
 viewBox="0.00 0.00 875.86 231.00" xmlns="http://www.w3.org/2000/svg" xmlns:xlink="http://www.w3.org/1999/xlink">
<g id="graph0" class="graph" transform="scale(1 1) rotate(0) translate(4 227)">
<title>%3</title>
<polygon fill="#333333" stroke="transparent" points="-4,4 -4,-227 871.86,-227 871.86,4 -4,4"/>
<text text-anchor="middle" x="433.93" y="-9.2" font-family="Times,serif" font-size="16.00" fill="white">Network Map</text>
<!-- SW1 -->
<g id="node1" class="node">
<title>SW1</title>
<polygon fill="#006699" stroke="#006699" points="520.36,-223 431.36,-223 431.36,-150 520.36,-150 520.36,-223"/>
<text text-anchor="middle" x="475.86" y="-182.8" font-family="Helvetica,sans-Serif" font-size="14.00" fill="white">SW1</text>
</g>
<!-- R5 -->
<g id="node2" class="node">
<title>R5</title>
<polygon fill="#006699" stroke="#006699" points="83.86,-223 7.86,-223 7.86,-150 83.86,-150 83.86,-223"/>
<text text-anchor="middle" x="45.86" y="-182.8" font-family="Helvetica,sans-Serif" font-size="14.00" fill="white">R5</text>
</g>
<!-- R3 -->
<g id="node3" class="node">
<title>R3</title>
<polygon fill="#006699" stroke="#006699" points="206.86,-99 130.86,-99 130.86,-26 206.86,-26 206.86,-99"/>
<text text-anchor="middle" x="168.86" y="-58.8" font-family="Helvetica,sans-Serif" font-size="14.00" fill="white">R3</text>
</g>
<!-- R3&#45;&#45;SW1 -->
<g id="edge3" class="edge">
<title>R3&#45;&#45;SW1</title>
<path fill="none" stroke="green" stroke-dasharray="5,2" d="M207.1,-84.28C234.63,-98.75 272.93,-117.92 307.86,-132 348.89,-148.53 397.12,-163.45 431.36,-173.3"/>
<text text-anchor="middle" x="357.86" y="-120.8" font-family="Courier,monospace" font-size="14.00" fill="white"> &#160;&#160;&#160;&#160;&#160;&#160;&#160;&#160;&#160;&#160;&#160;</text>
<text text-anchor="middle" x="406.36" y="-162.1" font-family="Courier,monospace" font-size="14.00" fill="white">Eth0/3</text>
<text text-anchor="middle" x="232.1" y="-73.08" font-family="Courier,monospace" font-size="14.00" fill="white">Eth0/0</text>
</g>
<!-- R3&#45;&#45;R5 -->
<g id="edge7" class="edge">
<title>R3&#45;&#45;R5</title>
<path fill="none" stroke="green" stroke-dasharray="5,2" d="M130.7,-74.55C108.49,-82.84 81.65,-96.37 64.86,-117 57.3,-126.28 52.75,-138.37 50,-149.8"/>
<text text-anchor="middle" x="114.86" y="-120.8" font-family="Courier,monospace" font-size="14.00" fill="white"> &#160;&#160;&#160;&#160;&#160;&#160;&#160;&#160;&#160;&#160;&#160;</text>
<text text-anchor="middle" x="25" y="-138.6" font-family="Courier,monospace" font-size="14.00" fill="white">Eth0/0</text>
<text text-anchor="middle" x="105.7" y="-63.35" font-family="Courier,monospace" font-size="14.00" fill="white">Eth0/2</text>
</g>
<!-- R4 -->
<g id="node8" class="node">
<title>R4</title>
<polygon fill="#006699" stroke="#006699" points="206.86,-223 130.86,-223 130.86,-150 206.86,-150 206.86,-223"/>
<text text-anchor="middle" x="168.86" y="-182.8" font-family="Helvetica,sans-Serif" font-size="14.00" fill="white">R4</text>
</g>
<!-- R3&#45;&#45;R4 -->
<g id="edge6" class="edge">
<title>R3&#45;&#45;R4</title>
<path fill="none" stroke="green" stroke-dasharray="5,2" d="M168.86,-99.12C168.86,-115.01 168.86,-133.7 168.86,-149.63"/>
<text text-anchor="middle" x="218.86" y="-120.8" font-family="Courier,monospace" font-size="14.00" fill="white"> &#160;&#160;&#160;&#160;&#160;&#160;&#160;&#160;&#160;&#160;&#160;</text>
<text text-anchor="middle" x="143.86" y="-138.43" font-family="Courier,monospace" font-size="14.00" fill="white">Eth0/0</text>
<text text-anchor="middle" x="143.86" y="-102.92" font-family="Courier,monospace" font-size="14.00" fill="white">Eth0/1</text>
</g>
<!-- SW2 -->
<g id="node4" class="node">
<title>SW2</title>
<polygon fill="#006699" stroke="#006699" points="828.36,-223 739.36,-223 739.36,-150 828.36,-150 828.36,-223"/>
<text text-anchor="middle" x="783.86" y="-182.8" font-family="Helvetica,sans-Serif" font-size="14.00" fill="white">SW2</text>
</g>
<!-- R2 -->
<g id="node5" class="node">
<title>R2</title>
<polygon fill="#006699" stroke="#006699" points="759.86,-99 683.86,-99 683.86,-26 759.86,-26 759.86,-99"/>
<text text-anchor="middle" x="721.86" y="-58.8" font-family="Helvetica,sans-Serif" font-size="14.00" fill="white">R2</text>
</g>
<!-- R2&#45;&#45;SW1 -->
<g id="edge2" class="edge">
<title>R2&#45;&#45;SW1</title>
<path fill="none" stroke="green" stroke-dasharray="5,2" d="M683.74,-94.8C667,-107.51 646.67,-121.62 626.86,-132 592.74,-149.88 551.34,-164.07 520.53,-173.33"/>
<text text-anchor="middle" x="700.86" y="-120.8" font-family="Courier,monospace" font-size="14.00" fill="white"> &#160;&#160;&#160;&#160;&#160;&#160;&#160;&#160;&#160;&#160;&#160;</text>
<text text-anchor="middle" x="545.53" y="-162.13" font-family="Courier,monospace" font-size="14.00" fill="white">Eth0/2</text>
<text text-anchor="middle" x="658.74" y="-83.6" font-family="Courier,monospace" font-size="14.00" fill="white">Eth0/0</text>
</g>
<!-- R2&#45;&#45;SW2 -->
<g id="edge5" class="edge">
<title>R2&#45;&#45;SW2</title>
<path fill="none" stroke="green" stroke-dasharray="5,2" d="M751.1,-99.28C755.04,-105.01 758.78,-111.02 761.86,-117 767.13,-127.21 771.45,-138.93 774.83,-149.75"/>
<text text-anchor="middle" x="817.86" y="-120.8" font-family="Courier,monospace" font-size="14.00" fill="white"> &#160;&#160;&#160;&#160;&#160;&#160;&#160;&#160;&#160;&#160;&#160;</text>
<text text-anchor="middle" x="745.83" y="-138.55" font-family="Courier,monospace" font-size="14.00" fill="white">Eth0/11</text>
<text text-anchor="middle" x="726.1" y="-103.08" font-family="Courier,monospace" font-size="14.00" fill="white">Eth0/1</text>
</g>
<!-- R6 -->
<g id="node6" class="node">
<title>R6</title>
<polygon fill="#006699" stroke="#006699" points="452.86,-99 376.86,-99 376.86,-26 452.86,-26 452.86,-99"/>
<text text-anchor="middle" x="414.86" y="-58.8" font-family="Helvetica,sans-Serif" font-size="14.00" fill="white">R6</text>
</g>
<!-- R6&#45;&#45;SW1 -->
<g id="edge4" class="edge">
<title>R6&#45;&#45;SW1</title>
<path fill="none" stroke="green" stroke-dasharray="5,2" d="M409.97,-99.21C409.88,-110.15 411.26,-121.94 415.86,-132 419.52,-140 425,-147.3 431.2,-153.76"/>
<text text-anchor="middle" x="465.86" y="-120.8" font-family="Courier,monospace" font-size="14.00" fill="white"> &#160;&#160;&#160;&#160;&#160;&#160;&#160;&#160;&#160;&#160;&#160;</text>
<text text-anchor="middle" x="406.2" y="-142.56" font-family="Courier,monospace" font-size="14.00" fill="white">Eth0/5</text>
<text text-anchor="middle" x="384.97" y="-103.01" font-family="Courier,monospace" font-size="14.00" fill="white">Eth0/1</text>
</g>
<!-- R1 -->
<g id="node7" class="node">
<title>R1</title>
<polygon fill="#006699" stroke="#006699" points="575.86,-99 499.86,-99 499.86,-26 575.86,-26 575.86,-99"/>
<text text-anchor="middle" x="537.86" y="-58.8" font-family="Helvetica,sans-Serif" font-size="14.00" fill="white">R1</text>
</g>
<!-- R1&#45;&#45;SW1 -->
<g id="edge1" class="edge">
<title>R1&#45;&#45;SW1</title>
<path fill="none" stroke="green" stroke-dasharray="5,2" d="M528.83,-99.25C525.45,-110.07 521.13,-121.79 515.86,-132 512.78,-137.98 509.04,-143.99 505.1,-149.72"/>
<text text-anchor="middle" x="572.86" y="-120.8" font-family="Courier,monospace" font-size="14.00" fill="white"> &#160;&#160;&#160;&#160;&#160;&#160;&#160;&#160;&#160;&#160;&#160;</text>
<text text-anchor="middle" x="480.1" y="-138.52" font-family="Courier,monospace" font-size="14.00" fill="white">Eth0/1</text>
<text text-anchor="middle" x="503.83" y="-103.05" font-family="Courier,monospace" font-size="14.00" fill="white">Eth0/0</text>
</g>
</g>
</svg>
